<?xml version="1.0" encoding="UTF-8" standalone="no"?>
<!DOCTYPE svg PUBLIC "-//W3C//DTD SVG 1.1//EN" "http://www.w3.org/Graphics/SVG/1.1/DTD/svg11.dtd">
<svg width="100%" height="100%" viewBox="0 0 512 512" version="1.1" xmlns="http://www.w3.org/2000/svg" xmlns:xlink="http://www.w3.org/1999/xlink" xml:space="preserve" style="fill-rule:evenodd;clip-rule:evenodd;stroke-linejoin:round;stroke-miterlimit:2;">
    <path d="M512,61.44c0,-33.91 -27.53,-61.44 -61.44,-61.44l-389.12,0c-33.91,0 -61.44,27.53 -61.44,61.44l0,389.12c0,33.91 27.53,61.44 61.44,61.44l389.12,0c33.91,0 61.44,-27.53 61.44,-61.44l0,-389.12Z" style="fill:#3e1f58;"/>
    <path d="M205.565,236.29c-5.235,0 -10.253,-0.842 -14.879,-2.379c3.136,-7.099 11.332,-13.044 14.879,-15.371c3.557,2.327 11.753,8.277 14.884,15.371c-4.626,1.537 -9.644,2.379 -14.884,2.379Zm189.386,-0.832c-12.244,0 -21.58,-3.997 -28.003,-11.994c-6.427,-7.993 -9.638,-18.668 -9.638,-32.024c0,-8.801 1.669,-16.543 5.008,-23.221c3.339,-6.678 8.021,-11.838 14.037,-15.48c6.021,-3.641 12.879,-5.462 20.569,-5.462c9.411,0 16.718,2.601 21.93,7.813c5.212,5.212 7.969,12.675 8.272,22.389c0,6.172 -0.355,10.878 -1.064,14.113l-52.209,0c0.204,10.017 2.531,18.085 6.981,24.21c4.455,6.12 10.778,9.18 18.975,9.18c4.043,0 8.271,-0.733 12.67,-2.199c4.403,-1.467 7.818,-3.212 10.244,-5.236l2.885,6.678c-2.932,3.036 -7.284,5.666 -13.053,7.894c-5.766,2.222 -11.635,3.339 -17.604,3.339Zm-310.077,-43.256c-0,-8.4 1.646,-15.99 4.933,-22.768c3.287,-6.782 8.144,-12.169 14.571,-16.165c6.423,-3.996 14.137,-5.992 23.146,-5.992c4.347,-0 8.092,0.402 11.228,1.21c3.14,0.809 6.881,1.925 11.232,3.339l-0.605,23.373l-9.866,-0l-3.339,-15.479c-0.61,-2.833 -4.455,-4.252 -11.535,-4.252c-7.084,0 -12.675,2.861 -16.77,8.579c-4.101,5.714 -6.149,13.834 -6.149,24.357c-0,11.942 2.304,21.023 6.905,27.247c4.607,6.219 10.599,9.331 17.986,9.331c4.252,0 8.272,-0.658 12.065,-1.972c3.798,-1.315 7.061,-2.885 9.79,-4.706l2.885,6.072c-2.733,2.833 -6.753,5.387 -12.065,7.667c-5.315,2.275 -10.702,3.415 -16.165,3.415c-8.295,0 -15.304,-1.873 -21.022,-5.619c-5.718,-3.741 -10.017,-8.877 -12.902,-15.404c-2.881,-6.527 -4.323,-13.938 -4.323,-22.233Zm181.067,-30.964l-10.929,-2.734l-0,-8.196l21.703,-2.729l0.459,0l3.187,2.729l-0,6.376l-0.151,3.641c3.642,-3.235 8.447,-6.172 14.415,-8.801c5.969,-2.63 11.687,-3.945 17.154,-3.945c6.371,0 11.304,1.211 14.794,3.642c3.495,2.426 5.945,6.148 7.364,11.157c1.414,5.008 2.123,11.762 2.123,20.261l-0,42.494l10.627,1.064l-0,7.591l-35.972,0l-0,-7.439l9.412,-1.216l-0,-42.645c-0,-5.974 -0.407,-10.651 -1.216,-14.042c-0.808,-3.386 -2.327,-5.917 -4.554,-7.586c-2.228,-1.67 -5.463,-2.507 -9.715,-2.507c-3.641,0 -7.538,0.913 -11.686,2.734c-4.148,1.821 -7.841,3.944 -11.076,6.375l-0,57.52l10.319,1.367l-0,7.439l-35.821,0l-0,-7.439l9.563,-1.367l-0,-63.744Zm-102.274,39.685c13.058,2.053 25.482,6.81 36.341,13.919c-4.55,3.197 -11.871,9.208 -15.224,16.638c-12.259,-6.125 -20.654,-17.485 -21.117,-30.557Zm62.684,30.557c-3.353,-7.43 -10.674,-13.436 -15.224,-16.638c10.859,-7.109 23.283,-11.866 36.341,-13.919c-0.463,13.072 -8.858,24.432 -21.117,30.557Zm-20.786,-40.196c3.022,1.939 9.45,6.489 13.228,12.212c-4.606,2.199 -9.033,4.748 -13.228,7.633c-4.19,-2.885 -8.617,-5.434 -13.224,-7.633c3.779,-5.728 10.211,-10.273 13.224,-12.212Zm-35.802,-11.729c5.411,1.254 17.622,4.947 23.255,13.616c-2.384,2.228 -4.73,4.843 -6.55,7.747c-6.007,-2.398 -12.269,-4.223 -18.691,-5.434c-0.554,-6.408 0.964,-12.628 1.986,-15.929Zm73.595,15.929c-6.422,1.211 -12.684,3.036 -18.686,5.434c-1.826,-2.904 -4.171,-5.519 -6.555,-7.747c5.633,-8.673 17.849,-12.362 23.26,-13.616c1.016,3.301 2.535,9.521 1.981,15.929Zm-50.676,-11.951c3.784,-6.196 9.88,-11.1 12.888,-13.29c3.008,2.185 9.095,7.075 12.888,13.29c-1.935,1.608 -3.718,3.448 -5.217,5.552c-3.235,-2.436 -5.779,-3.878 -6.021,-4.015c-1.016,-0.568 -2.289,-0.568 -3.306,-0c-0.241,0.137 -2.785,1.579 -6.02,4.015c-1.499,-2.104 -3.278,-3.944 -5.212,-5.552Zm217.749,0.014c0.303,-2.124 0.454,-4.299 0.454,-6.527c-0.099,-6.574 -1.49,-11.762 -4.171,-15.555c-2.682,-3.793 -6.905,-5.689 -12.675,-5.689c-5.87,-0 -10.547,2.123 -14.037,6.375c-3.491,4.247 -5.491,11.379 -5.997,21.396l36.426,0Zm-226.532,-25.397c3.358,1.319 10.121,4.346 15.409,9.061c-3.5,2.786 -8.343,7.213 -11.838,12.694c-4.356,-2.558 -8.901,-4.228 -12.495,-5.283c1.859,-7.098 6.564,-13.554 8.924,-16.472Zm43.351,-0c2.36,2.908 7.061,9.35 8.919,16.472c-3.599,1.05 -8.144,2.72 -12.504,5.279c-3.495,-5.472 -8.329,-9.899 -11.829,-12.685c5.274,-4.701 12.056,-7.742 15.414,-9.066Zm-21.68,-12.429c2.662,1.754 7.903,5.528 11.715,10.31c-3.505,1.892 -7.392,4.408 -10.741,7.572c-0.634,-0.189 -1.315,-0.189 -1.948,-0c-3.349,-3.169 -7.237,-5.685 -10.741,-7.572c3.807,-4.767 9.057,-8.551 11.715,-10.31Z" style="fill:#fff;fill-rule:nonzero;"/>
    <path d="M94.612,366.279c-0.768,0 -1.959,-0.115 -3.571,-0.346c-1.229,-1.305 -2.323,-3.09 -3.283,-5.356c-0.96,-2.265 -1.69,-4.684 -2.189,-7.257c-0.499,-2.572 -0.729,-5.145 -0.691,-7.718c0.039,-2.572 0.48,-4.857 1.325,-6.853c-0,-0.077 0.365,-0.999 1.094,-2.765c0.73,-1.766 1.67,-4.012 2.822,-6.739c1.152,-2.726 2.458,-5.759 3.917,-9.1c1.459,-3.34 2.918,-6.623 4.377,-9.848c1.459,-3.226 2.86,-6.163 4.204,-8.812c1.344,-2.65 2.515,-4.704 3.514,-6.163c0.691,-1.075 1.324,-2.112 1.9,-3.11c0.576,-0.998 1.133,-1.92 1.671,-2.765c0.844,-1.382 1.631,-2.668 2.361,-3.858c0.729,-1.191 1.536,-2.266 2.419,-3.226c0.883,-0.96 1.862,-1.804 2.937,-2.534c1.075,-0.729 2.381,-1.363 3.917,-1.901c0.921,0.384 1.728,0.788 2.419,1.21c0.691,0.422 1.305,0.941 1.843,1.555l0.345,1.613c0.154,0.537 0.403,0.902 0.749,1.094c0.346,0.192 0.634,0.288 0.864,0.288c0.998,0.23 1.862,0.48 2.592,0.749c0.729,0.268 1.516,0.441 2.361,0.518c0.307,0.461 0.595,0.922 0.864,1.382c0.269,0.461 0.557,0.883 0.864,1.267c1.536,2.227 2.803,4.378 3.801,6.451c0.999,2.073 0.999,4.339 -0,6.796l0.115,1.267c0.384,0.538 0.576,1.037 0.576,1.498c-0,0.461 -0.076,1.113 -0.23,1.958c-0.077,0.614 -0.134,1.286 -0.173,2.016c-0.038,0.729 0.058,1.516 0.288,2.361l0.806,0.922c1.229,0.614 2.419,0.921 3.571,0.921c1.536,0 2.919,-0.345 4.147,-1.036c1.229,-0.692 2.381,-1.383 3.456,-2.074c0.845,-0.614 1.632,-1.113 2.361,-1.497c0.73,-0.384 1.44,-0.653 2.131,-0.807c1.613,-1.536 3.091,-2.899 4.435,-4.089c1.344,-1.19 2.745,-2.4 4.205,-3.628c2.764,-2.227 5.452,-4.627 8.063,-7.2c2.611,-2.572 4.684,-5.778 6.22,-9.618c0.845,-0.538 1.805,-0.806 2.88,-0.806c1.075,0 2.15,0.211 3.225,0.633c1.075,0.422 2.15,0.902 3.225,1.44c0.231,0.154 0.442,0.269 0.634,0.346c0.192,0.076 0.403,0.192 0.634,0.345c-0,0.845 0.345,1.613 1.036,2.304c0.384,0.307 0.653,0.499 0.807,0.576c0.153,0.077 0.307,0.153 0.46,0.23c0.615,0.384 1.133,0.73 1.555,1.037c0.423,0.307 0.749,0.729 0.979,1.267c0.692,2.073 1.844,3.686 3.456,4.838c-0.153,0.845 -0.115,1.67 0.115,2.477c0.231,0.806 0.5,1.593 0.807,2.361c0.153,0.307 0.268,0.595 0.345,0.864c0.077,0.269 0.192,0.595 0.346,0.979l-2.534,-0.23l0.345,2.534c0.231,1.305 0.135,2.764 -0.288,4.377c-0.422,1.613 -0.902,2.88 -1.44,3.801c0.154,2.304 0.231,4.128 0.231,5.472c-0,1.344 -0.077,2.592 -0.231,3.743c-0.153,1.152 -0.403,2.247 -0.748,3.283c-0.346,1.037 -0.787,2.131 -1.325,3.283c0.307,5.837 -0.365,11.174 -2.016,16.012c-1.651,4.838 -3.436,9.368 -5.356,13.592c-0.231,0.538 -0.461,1.037 -0.691,1.498c-0.231,0.46 -0.423,0.921 -0.576,1.382c-0.845,0.23 -1.613,0.499 -2.304,0.806c-0.691,0.307 -1.344,0.653 -1.958,1.037c-0.845,0.537 -1.69,0.979 -2.534,1.325c-0.845,0.345 -1.728,0.518 -2.65,0.518c-3.686,-2.688 -5.587,-7.334 -5.702,-13.938c-0.115,-6.604 1.287,-15.013 4.205,-25.227c0.537,-0.384 0.768,-0.96 0.691,-1.727l-0,-1.268l-1.152,-0.115c-0.384,0 -0.73,0.039 -1.037,0.115c-0.307,0.077 -0.537,0.423 -0.691,1.037c-2.457,1.766 -5.126,3.59 -8.006,5.472c-2.879,1.881 -5.855,3.609 -8.927,5.183c-3.072,1.574 -6.201,2.88 -9.388,3.917c-3.187,1.036 -6.278,1.555 -9.273,1.555c-7.679,0 -13.477,-3.917 -17.393,-11.75l-1.037,-2.073l-1.152,1.843c-0.23,0.384 -0.633,1.133 -1.209,2.246c-0.576,1.114 -1.152,2.4 -1.728,3.859c-0.576,1.459 -1.075,2.957 -1.498,4.492c-0.422,1.536 -0.556,2.88 -0.403,4.032c-0.921,0.845 -1.824,1.805 -2.707,2.88c-0.883,1.075 -1.516,2.304 -1.9,3.686c-0.154,0.384 -0.192,0.749 -0.116,1.094c0.077,0.346 0.192,0.711 0.346,1.094c-0.077,0.538 -0.23,0.922 -0.461,1.152c-0.23,0.231 -0.499,0.461 -0.806,0.692c-0.384,0.383 -0.768,0.787 -1.152,1.209c-0.384,0.422 -0.73,0.902 -1.037,1.44c-0.153,0.461 -0.268,0.941 -0.345,1.44c-0.077,0.499 -0.154,0.94 -0.231,1.324c-0,0.845 -0.115,1.421 -0.345,1.728c-0.768,1.613 -1.44,2.938 -2.016,3.974c-0.576,1.037 -1.133,1.824 -1.67,2.362c-0.538,0.537 -1.095,0.902 -1.671,1.094c-0.575,0.192 -1.247,0.288 -2.015,0.288Zm198.587,-0.346c-2.227,-0.537 -3.936,-1.439 -5.126,-2.707c-1.19,-1.267 -2.074,-2.764 -2.649,-4.492c-0.576,-1.728 -0.96,-3.628 -1.152,-5.702c-0.192,-2.073 -0.404,-4.223 -0.634,-6.45c0.307,-0.999 0.71,-1.843 1.21,-2.535c0.499,-0.691 0.71,-1.651 0.633,-2.879c0.845,-2.458 1.613,-4.838 2.304,-7.142c0.691,-2.304 1.152,-4.685 1.382,-7.142c0.461,-0.691 0.922,-1.152 1.382,-1.382c0.615,-4.377 0.692,-8.87 0.231,-13.477c-0.461,-4.608 -1.229,-8.87 -2.304,-12.786c0.077,-0.845 0.192,-1.479 0.346,-1.901c0.153,-0.422 0.153,-0.787 -0,-1.094c-0.154,-0.692 0.076,-1.037 0.691,-1.037l1.843,0c-0,-1.382 -0.25,-2.745 -0.749,-4.089c-0.499,-1.344 -0.979,-2.899 -1.44,-4.666c0.615,-1.382 1.037,-2.726 1.267,-4.031c0.231,-1.306 0.653,-2.496 1.267,-3.571c2.458,0.768 4.877,1.651 7.257,2.649c2.381,0.999 4.723,1.978 7.027,2.938c2.304,0.96 4.569,1.881 6.796,2.764c2.227,0.883 4.416,1.594 6.566,2.131c3.302,2.381 6.7,4.742 10.194,7.084c3.494,2.343 6.681,4.915 9.561,7.718c2.88,2.803 5.279,6.009 7.199,9.618c1.92,3.61 3.034,7.872 3.341,12.787c-0.154,0.46 -0.269,0.844 -0.346,1.151c-0.077,0.308 -0.153,0.615 -0.23,0.922c-0.077,0.307 -0.115,0.653 -0.115,1.037l-0,1.612c-2.765,4.838 -6.259,8.908 -10.483,12.21c-4.223,3.303 -8.831,6.221 -13.822,8.755c-4.992,2.534 -10.195,4.857 -15.609,6.969c-5.413,2.112 -10.693,4.358 -15.838,6.738Zm-97.105,-12.21l1.497,-1.152l0.116,-2.419c1.919,-4.684 3.897,-9.176 5.932,-13.477c2.035,-4.3 4.166,-8.716 6.393,-13.247c0.691,-1.459 1.401,-2.918 2.131,-4.377c0.729,-1.459 1.44,-2.956 2.131,-4.492c-0.077,-0.307 -0.115,-0.634 -0.115,-0.979c0,-0.346 0.076,-0.749 0.23,-1.21c1.075,-1.536 1.939,-2.918 2.592,-4.147c0.653,-1.228 1.286,-2.495 1.9,-3.801c0.692,-1.536 1.44,-3.072 2.247,-4.608c0.806,-1.535 1.823,-3.033 3.052,-4.492l0.806,-1.152l1.268,0.115c0.307,-0.153 0.633,-0.288 0.979,-0.403c0.345,-0.115 0.787,-0.173 1.324,-0.173l2.074,0.346c2.534,-1.152 4.78,-2.822 6.738,-5.011c1.959,-2.188 3.936,-4.819 5.933,-7.89l1.382,-1.958l1.843,1.151c0.384,0.231 0.998,0.461 1.843,0.692c0.845,0.23 1.728,0.499 2.649,0.806c1.613,0.384 3.187,0.825 4.723,1.325c1.536,0.499 2.726,1.171 3.571,2.015l0.576,1.037c0.154,0.845 0.288,1.613 0.403,2.304c0.115,0.691 0.25,1.382 0.403,2.073c0.307,1.613 0.576,3.206 0.807,4.781c0.23,1.574 0.384,3.321 0.46,5.241c0.384,1.536 0.749,3.091 1.095,4.665c0.345,1.574 0.672,3.129 0.979,4.665c0.384,2.227 0.806,4.358 1.267,6.393c0.461,2.035 1.075,3.974 1.843,5.817c0.768,0 1.229,0.039 1.382,0.116c0.922,-0.384 1.997,-0.615 3.226,-0.692l1.497,-0.115l0.461,1.382c0.153,0.231 0.345,0.461 0.576,0.692c0.23,0.23 0.499,0.46 0.806,0.691c1.229,0.077 2.131,0.326 2.707,0.748c0.576,0.423 1.056,0.826 1.44,1.21c0.153,0.154 0.345,0.326 0.576,0.518c0.23,0.192 0.422,0.327 0.576,0.403l2.073,0.807l-1.152,2.188c-0.844,1.613 -2.131,3.187 -3.859,4.723c-1.727,1.536 -3.666,2.803 -5.817,3.801c0.154,0.538 0.25,1.037 0.288,1.498c0.039,0.461 0.135,0.998 0.288,1.613c0.307,1.535 0.557,3.129 0.749,4.78c0.192,1.651 0.173,3.36 -0.058,5.126c-0.767,1.997 -1.67,3.782 -2.707,5.356c-1.036,1.574 -2.265,2.995 -3.686,4.262c-1.42,1.267 -3.014,2.304 -4.78,3.11c-1.766,0.807 -3.609,1.248 -5.529,1.325c-1.075,-0.23 -1.862,-0.499 -2.361,-0.806c-0.5,-0.307 -0.941,-0.615 -1.325,-0.922c-0.615,-0.461 -1.114,-0.768 -1.498,-0.921l-1.497,-0.691l0.461,-1.728c0.23,-0.615 0.211,-1.152 -0.058,-1.613c-0.269,-0.461 -0.825,-1.075 -1.67,-1.843c-0.307,-0.23 -0.576,-0.48 -0.807,-0.749c-0.23,-0.269 -0.499,-0.556 -0.806,-0.864l-2.304,-2.649l3.802,-1.037c2.303,-0.614 3.839,-1.401 4.607,-2.361c0.768,-0.96 1.075,-2.669 0.922,-5.126c-1.92,-0.384 -3.494,-0.442 -4.723,-0.173c-1.229,0.269 -2.457,0.557 -3.686,0.864c-1.766,0.461 -3.494,0.864 -5.184,1.21c-1.689,0.345 -3.532,0.518 -5.529,0.518c-1.305,0 -2.688,-0.115 -4.147,-0.346l-1.267,-0.115l-0.345,-1.267c0,-0.154 -0.096,-0.326 -0.288,-0.518c-0.192,-0.192 -0.365,-0.365 -0.519,-0.519c-0.384,-0.46 -0.844,-1.075 -1.382,-1.843c-0.537,-0.768 -0.653,-1.728 -0.345,-2.879c-0.538,-0.845 -0.845,-1.728 -0.922,-2.65c-0.307,0.615 -0.557,1.21 -0.749,1.786l-0.979,3.167l-1.497,0.231c-0.154,0.153 -0.288,0.384 -0.403,0.691c-0.116,0.307 -0.135,0.537 -0.058,0.691l0.461,1.267l-1.152,1.037c-0.154,0.23 -0.346,0.422 -0.576,0.576c-0.23,0.153 -0.422,0.307 -0.576,0.461c-0.154,0.844 -0.365,1.651 -0.634,2.419c-0.268,0.767 -0.556,1.535 -0.864,2.303c-0.383,1.229 -0.748,2.419 -1.094,3.571c-0.345,1.152 -0.518,2.304 -0.518,3.456l-0.461,1.497c-0.384,0.615 -0.864,1.075 -1.44,1.383c-0.576,0.307 -1.133,0.576 -1.67,0.806c-0.768,0.307 -1.306,0.614 -1.613,0.921l-0.345,1.498l-1.728,0.23c-0.998,0.231 -1.709,0.384 -2.131,0.461c-0.423,0.077 -0.902,0.115 -1.44,0.115l-1.497,-0.115c-0.922,-0.921 -1.671,-1.632 -2.247,-2.131c-0.576,-0.499 -1.248,-0.941 -2.016,-1.325l-0.691,-0.921c-0.307,-0.614 -0.499,-1.171 -0.576,-1.67c-0.076,-0.5 -0.192,-1.018 -0.345,-1.555c-0.154,-0.999 -0.384,-1.69 -0.691,-2.074l-1.728,-1.728Zm160.574,7.027c-0.614,-0.614 -1.055,-1.344 -1.324,-2.189c-0.269,-0.844 -0.903,-1.536 -1.901,-2.073c-0.153,-1.152 -0.365,-2.477 -0.633,-3.974c-0.269,-1.498 -0.538,-3.034 -0.807,-4.608c-0.269,-1.574 -0.461,-3.148 -0.576,-4.723c-0.115,-1.574 -0.057,-3.014 0.173,-4.319c0.154,-0.691 0.403,-1.344 0.749,-1.958c0.345,-0.615 0.691,-1.21 1.036,-1.786c0.346,-0.576 0.615,-1.171 0.807,-1.785c0.192,-0.615 0.211,-1.229 0.057,-1.843c0.461,-0.077 0.749,-0.327 0.864,-0.749c0.116,-0.422 0.48,-0.557 1.095,-0.403c0.537,-1.69 1.113,-3.264 1.727,-4.723c0.615,-1.459 1.268,-2.88 1.959,-4.262c0.691,-1.382 1.401,-2.784 2.131,-4.204c0.729,-1.421 1.401,-3.015 2.016,-4.781c-1.306,-1.229 -2.247,-2.553 -2.823,-3.974c-0.576,-1.421 -1.017,-2.86 -1.324,-4.319c-0.307,-1.46 -0.538,-2.938 -0.691,-4.435c-0.154,-1.498 -0.461,-3.014 -0.922,-4.55c0.922,-1.383 2.035,-2.515 3.341,-3.398c1.305,-0.884 2.745,-1.613 4.319,-2.189c1.574,-0.576 3.283,-1.037 5.126,-1.382c1.843,-0.346 3.801,-0.749 5.875,-1.21c3.686,-1.152 6.988,-2.054 9.906,-2.707c2.918,-0.652 5.76,-1.19 8.524,-1.612c2.765,-0.423 5.644,-0.807 8.639,-1.152c2.995,-0.346 6.451,-0.864 10.367,-1.555c0.077,0.23 0.212,0.345 0.404,0.345l0.748,0c0.231,0.538 0.653,0.807 1.267,0.807c-0,-0.231 -0.019,-0.442 -0.057,-0.634c-0.039,-0.192 -0.058,-0.365 -0.058,-0.518c0.154,0 0.365,0.038 0.634,0.115c0.269,0.077 0.499,0.153 0.691,0.23c0.192,0.077 0.365,0.058 0.518,-0.057c0.154,-0.116 0.192,-0.365 0.116,-0.749c0.921,1.613 2.111,2.937 3.57,3.974c1.459,1.037 3.072,1.939 4.838,2.707c0.077,0.691 0.096,1.19 0.058,1.497c-0.038,0.308 -0.096,0.596 -0.173,0.864c-0.077,0.269 -0.115,0.576 -0.115,0.922c-0,0.345 0.077,0.825 0.23,1.44c-1.228,2.073 -2.63,3.686 -4.204,4.838c-1.574,1.152 -3.245,2.035 -5.011,2.649c-1.766,0.614 -3.628,1.075 -5.587,1.382c-1.958,0.307 -3.954,0.634 -5.989,0.979c-2.035,0.346 -4.09,0.826 -6.163,1.44c-2.073,0.615 -4.108,1.536 -6.105,2.765c-0.614,-0.231 -1.171,-0.327 -1.67,-0.288c-0.5,0.038 -1.018,0.134 -1.555,0.288c-0.538,0.153 -1.133,0.307 -1.786,0.461c-0.653,0.153 -1.44,0.153 -2.361,0c-0.615,0.537 -1.325,0.921 -2.131,1.152c-0.807,0.23 -1.632,0.46 -2.477,0.691c0.384,0.844 0.557,1.689 0.519,2.534c-0.039,0.845 0.057,1.574 0.287,2.188c3.226,0.308 6.797,0.288 10.713,-0.057c3.917,-0.346 7.756,-0.595 11.519,-0.749c0.077,0.384 0.039,0.653 -0.115,0.806c-0.154,0.154 -0.23,0.423 -0.23,0.807c0.691,0.461 1.343,1.036 1.958,1.728c0.614,0.691 1.248,1.363 1.9,2.015c0.653,0.653 1.325,1.191 2.016,1.613c0.691,0.422 1.498,0.595 2.419,0.518c0.384,0.768 0.653,1.575 0.807,2.419c0.153,0.845 0.038,1.728 -0.346,2.65c-1.536,0.998 -3.033,2.016 -4.492,3.052c-1.46,1.037 -2.976,1.978 -4.55,2.822c-1.575,0.845 -3.283,1.536 -5.126,2.074c-1.843,0.537 -3.84,0.768 -5.99,0.691l-0.979,0c-0.269,0 -0.596,-0.154 -0.979,-0.461c-0.768,0.384 -1.786,0.519 -3.053,0.403c-1.267,-0.115 -2.323,0.02 -3.168,0.404c-1.075,-0.384 -2.323,-0.576 -3.743,-0.576c-1.421,0 -2.669,-0.192 -3.744,-0.576c-1.382,1.996 -2.688,4.089 -3.917,6.278c-1.228,2.188 -2.303,4.511 -3.225,6.969c3.149,0.46 5.76,0.652 7.833,0.575c2.074,-0.076 4.032,-0.23 5.875,-0.46c1.843,-0.231 3.743,-0.461 5.702,-0.691c1.958,-0.231 4.358,-0.308 7.199,-0.231c1.92,-0.921 4.128,-1.555 6.623,-1.9c2.496,-0.346 4.819,-0.864 6.969,-1.556c0.768,0.231 1.421,0.672 1.959,1.325c0.537,0.653 1.056,1.306 1.555,1.958c0.499,0.653 1.017,1.21 1.555,1.671c0.537,0.46 1.228,0.614 2.073,0.46c0.384,0.384 0.634,0.845 0.749,1.383c0.115,0.537 0.23,1.036 0.345,1.497c0.116,0.461 0.288,0.826 0.519,1.094c0.23,0.269 0.653,0.365 1.267,0.288c-1.459,2.995 -3.091,5.299 -4.896,6.912c-1.804,1.612 -3.839,2.86 -6.105,3.743c-2.265,0.884 -4.799,1.536 -7.602,1.959c-2.803,0.422 -5.932,0.94 -9.388,1.555c-0.845,0.153 -1.555,0.134 -2.131,-0.058c-0.576,-0.192 -1.171,-0.288 -1.786,-0.288c-2.15,0.384 -4.703,0.768 -7.66,1.152c-2.956,0.384 -5.932,0.538 -8.927,0.461c-2.995,-0.077 -5.875,-0.461 -8.639,-1.152c-2.765,-0.691 -5.069,-1.92 -6.912,-3.686Zm-52.181,-60.129c-0.691,0 -1.19,0.153 -1.497,0.461c0.921,3.455 1.613,6.719 2.073,9.791c0.461,3.071 0.711,6.143 0.749,9.215c0.039,3.072 -0.134,6.22 -0.518,9.445c-0.384,3.226 -0.922,6.72 -1.613,10.483c0.998,-0.077 1.882,-0.269 2.649,-0.576c0.768,-0.307 1.556,-0.653 2.362,-1.037c0.806,-0.384 1.651,-0.729 2.534,-1.037c0.883,-0.307 1.901,-0.499 3.053,-0.576c0.307,-0.614 0.71,-1.094 1.209,-1.439c0.499,-0.346 0.941,-0.711 1.325,-1.095c1.92,-0.768 3.839,-1.574 5.759,-2.419c1.92,-0.844 3.686,-1.804 5.299,-2.879c1.613,-1.076 3.072,-2.304 4.377,-3.687c1.306,-1.382 2.381,-3.033 3.225,-4.953c-0.614,-1.152 -1.363,-2.131 -2.246,-2.937c-0.883,-0.806 -1.804,-1.613 -2.764,-2.419c-0.96,-0.806 -1.882,-1.651 -2.765,-2.534c-0.883,-0.883 -1.593,-1.901 -2.131,-3.053c-1.229,-0.153 -2.304,-0.48 -3.225,-0.979c-0.922,-0.499 -1.805,-0.998 -2.65,-1.497c-0.844,-0.499 -1.747,-0.979 -2.706,-1.44c-0.96,-0.461 -2.093,-0.73 -3.399,-0.807c-1.996,-1.075 -3.801,-1.823 -5.413,-2.246c-1.613,-0.422 -2.842,-1.017 -3.687,-1.785Zm-71.648,23.153c-1.075,1.536 -2.111,3.148 -3.11,4.838l3.11,-0.23c2.688,-0.154 5.184,-0.346 7.488,-0.576c2.304,-0.231 4.799,-0.615 7.487,-1.152c-0.614,-2.842 -1.286,-5.741 -2.016,-8.697c-0.729,-2.957 -1.516,-5.932 -2.361,-8.927l-0.576,1.152c-1.92,2.073 -3.763,4.3 -5.529,6.681c-1.766,2.38 -3.226,4.646 -4.377,6.796l-0.116,0.115Z" style="fill:#ffb2b2;fill-rule:nonzero;"/>
</svg>
