<?xml version="1.0" encoding="UTF-8" standalone="no"?>
<!DOCTYPE svg PUBLIC "-//W3C//DTD SVG 1.1//EN" "http://www.w3.org/Graphics/SVG/1.1/DTD/svg11.dtd">
<svg width="100%" height="100%" viewBox="0 0 24 24" version="1.1" xmlns="http://www.w3.org/2000/svg" xmlns:xlink="http://www.w3.org/1999/xlink" xml:space="preserve" xmlns:serif="http://www.serif.com/" style="fill-rule:evenodd;clip-rule:evenodd;stroke-linejoin:round;stroke-miterlimit:2;">
    <path d="M2.134,16.016c-0.742,1.974 -0.936,4.098 -0.559,6.19c0.111,0.614 0.27,1.214 0.473,1.794l8.713,-3.985l-8.627,-3.999Z" style="fill:#6524d6;"/>
    <path d="M20.376,15.618l2.157,-0.986c0.193,-1.487 0.034,-2.982 -0.463,-4.39l-6.7,3.083l5.006,2.293Z" style="fill:#6524d6;"/>
    <path d="M5.673,8.882l0.537,0.245l4.638,-2.104l-4.986,-2.354c-0.412,1.217 -0.509,2.512 -0.278,3.79c0.025,0.143 0.056,0.283 0.089,0.423Z" style="fill:#6524d6;"/>
    <path d="M13.035,6.031l3.742,-1.697l-2.945,-3.958c-0.176,-0.236 -0.453,-0.376 -0.749,-0.376c-0.294,0 -0.572,0.14 -0.748,0.376l-2.91,3.912l3.626,1.711l-0.016,0.032Z" style="fill:#6524d6;"/>
    <path d="M13.134,12.3l7.352,-3.384c0.037,-0.151 0.07,-0.303 0.098,-0.457c0.224,-1.243 0.138,-2.503 -0.245,-3.692l-11.881,5.39l4.676,2.143Z" style="fill:#6524d6;"/>
    <path d="M12.994,18.994l5.14,-2.351l-14.028,-6.426c-0.507,1.423 -0.667,2.936 -0.468,4.439l9.356,4.338Z" style="fill:#6524d6;"/>
</svg>
