<svg width="100%" height="100%" viewBox="0 0 15 18" version="1.1" xmlns="http://www.w3.org/2000/svg" xmlns:xlink="http://www.w3.org/1999/xlink" xml:space="preserve" style="fill-rule:evenodd;clip-rule:evenodd;stroke-linejoin:round;stroke-miterlimit:2;">
    <path d="M14.187,6.137c-0.104,0.081 -1.948,1.12 -1.948,3.429c0,2.672 2.346,3.617 2.416,3.64c-0.011,0.058 -0.372,1.294 -1.236,2.555c-0.771,1.108 -1.576,2.216 -2.8,2.216c-1.224,-0 -1.539,-0.711 -2.952,-0.711c-1.377,-0 -1.867,0.734 -2.987,0.734c-1.119,-0 -1.901,-1.026 -2.799,-2.286c-1.04,-1.48 -1.881,-3.779 -1.881,-5.961c0,-3.499 2.275,-5.355 4.515,-5.355c1.19,-0 2.182,0.781 2.929,0.781c0.711,0 1.82,-0.828 3.173,-0.828c0.514,0 2.357,0.047 3.57,1.786Zm-4.212,-3.268c0.56,-0.664 0.956,-1.585 0.956,-2.507c-0,-0.128 -0.011,-0.258 -0.035,-0.362c-0.91,0.034 -1.994,0.607 -2.648,1.365c-0.513,0.583 -0.991,1.504 -0.991,2.439c-0,0.14 0.023,0.281 0.034,0.326c0.057,0.01 0.151,0.023 0.245,0.023c0.817,0 1.845,-0.547 2.439,-1.284Z" style="fill-rule:nonzero;fill:currentColor;"/>
</svg>
