<svg
    aria-hidden="true"
    focusable="false"
    width="100%"
    height="100%"
    viewBox="0 0 24 24"
    version="1.1"
    xmlns="http://www.w3.org/2000/svg"
    xmlns:xlink="http://www.w3.org/1999/xlink"
    xml:space="preserve" style="fill-rule:evenodd;clip-rule:evenodd;stroke-linejoin:round;stroke-miterlimit:2;"
>
    <g>
        <path d="M12.24,9.818l-0,4.647l6.458,0c-0.283,1.495 -1.135,2.76 -2.411,3.611l3.895,3.022c2.269,-2.094 3.578,-5.171 3.578,-8.825c-0,-0.851 -0.076,-1.669 -0.218,-2.455l-11.302,0Z" style="fill:#4285f4;fill-rule:nonzero;"/>
        <path d="M5.515,14.284l-0.879,0.672l-3.109,2.422c1.975,3.917 6.022,6.622 10.713,6.622c3.24,-0 5.956,-1.069 7.941,-2.902l-3.894,-3.022c-1.069,0.72 -2.433,1.157 -4.047,1.157c-3.12,-0 -5.771,-2.106 -6.72,-4.942l-0.005,-0.007Z" style="fill:#34a853;fill-rule:nonzero;"/>
        <path d="M1.527,6.622c-0.818,1.614 -1.287,3.436 -1.287,5.378c0,1.942 0.469,3.764 1.287,5.378c0,0.011 3.993,-3.098 3.993,-3.098c-0.24,-0.72 -0.382,-1.484 -0.382,-2.28c0,-0.797 0.142,-1.56 0.382,-2.28l-3.993,-3.098Z" style="fill:#fbbc05;fill-rule:nonzero;"/>
        <path d="M12.24,4.778c1.767,0 3.338,0.611 4.593,1.789l3.436,-3.436c-2.084,-1.942 -4.789,-3.131 -8.029,-3.131c-4.691,0 -8.738,2.695 -10.713,6.622l3.993,3.098c0.949,-2.836 3.6,-4.942 6.72,-4.942Z" style="fill:#ea4335;fill-rule:nonzero;"/>
    </g>
</svg>
