<svg
    aria-hidden="true"
    focusable="false"
    height="24"
    role="img"
    style="fill: currentColor"
    viewBox="0 0 24 24"
    width="24"
    xmlns:xlink="http://www.w3.org/1999/xlink"
    xmlns="http://www.w3.org/2000/svg"
>
    <path d="M17.442,24c-0.308,0 -0.567,-0.109 -0.775,-0.327c-0.209,-0.217 -0.313,-0.48 -0.313,-0.789c-0,-0.308 0.104,-0.567 0.313,-0.775c0.208,-0.209 0.467,-0.313 0.775,-0.313c1.197,-0 2.222,-0.426 3.075,-1.279c0.853,-0.853 1.279,-1.878 1.279,-3.075c-0,-0.308 0.109,-0.571 0.326,-0.789c0.218,-0.218 0.481,-0.326 0.79,-0.326c0.308,-0 0.566,0.108 0.775,0.326c0.209,0.218 0.313,0.481 0.313,0.789c0,1.814 -0.639,3.361 -1.918,4.64c-1.279,1.279 -2.826,1.918 -4.64,1.918Zm-16.326,-16.354c-0.309,0 -0.572,-0.104 -0.789,-0.313c-0.218,-0.208 -0.327,-0.467 -0.327,-0.775c0,-1.814 0.639,-3.361 1.918,-4.64c1.279,-1.279 2.826,-1.918 4.64,-1.918c0.308,-0 0.571,0.104 0.789,0.313c0.218,0.209 0.326,0.467 0.326,0.775c0,0.309 -0.108,0.572 -0.326,0.79c-0.218,0.217 -0.481,0.326 -0.789,0.326c-1.197,0 -2.222,0.426 -3.075,1.279c-0.853,0.853 -1.279,1.878 -1.279,3.075c0,0.308 -0.104,0.567 -0.313,0.775c-0.208,0.209 -0.467,0.313 -0.775,0.313Zm18.748,-3.891c0.218,0.218 0.326,0.472 0.326,0.762c0,0.29 -0.108,0.544 -0.326,0.762l-6.912,6.939c-0.199,0.217 -0.449,0.322 -0.748,0.313c-0.299,-0.009 -0.558,-0.114 -0.775,-0.313c-0.218,-0.218 -0.327,-0.477 -0.327,-0.776c0,-0.299 0.109,-0.558 0.327,-0.775l6.911,-6.912c0.218,-0.218 0.472,-0.326 0.762,-0.326c0.29,-0 0.544,0.108 0.762,0.326Zm1.932,3.456c0.218,0.218 0.326,0.476 0.326,0.775c0,0.3 -0.108,0.558 -0.326,0.776l-6.15,6.15c-0.199,0.199 -0.449,0.299 -0.748,0.299c-0.299,-0 -0.558,-0.1 -0.776,-0.299c-0.217,-0.218 -0.331,-0.477 -0.34,-0.776c-0.009,-0.299 0.096,-0.558 0.313,-0.775l6.15,-6.15c0.218,-0.218 0.476,-0.327 0.775,-0.327c0.3,0 0.558,0.109 0.776,0.327Zm-17.116,12.109c-1.651,-1.651 -2.476,-3.637 -2.476,-5.959c0,-2.322 0.825,-4.309 2.476,-5.96l2.504,-2.503c0.217,-0.218 0.471,-0.327 0.762,-0.327c0.29,0 0.544,0.109 0.761,0.327l0.844,0.843c0.127,0.127 0.236,0.259 0.327,0.395c0.09,0.136 0.181,0.277 0.272,0.422l4.027,-4.055c0.218,-0.217 0.476,-0.326 0.775,-0.326c0.3,-0 0.558,0.109 0.776,0.326c0.218,0.218 0.326,0.477 0.326,0.776c0,0.299 -0.108,0.558 -0.326,0.775l-4.708,4.708l-2.313,2.286l0.517,0.517c0.835,0.834 1.234,1.832 1.198,2.993c-0.037,1.161 -0.481,2.168 -1.334,3.02l-0.027,0.027c-0.199,0.2 -0.449,0.3 -0.748,0.3c-0.299,-0 -0.558,-0.1 -0.776,-0.3c-0.217,-0.217 -0.326,-0.476 -0.326,-0.775c-0,-0.299 0.109,-0.558 0.326,-0.776c0.418,-0.417 0.649,-0.911 0.694,-1.483c0.046,-0.571 -0.14,-1.065 -0.558,-1.483l-1.278,-1.251c-0.218,-0.218 -0.327,-0.476 -0.327,-0.776c0,-0.299 0.109,-0.558 0.327,-0.775l1.551,-1.524c0.217,-0.218 0.326,-0.476 0.326,-0.776c0,-0.299 -0.109,-0.557 -0.326,-0.775l-1.742,1.741c-1.233,1.234 -1.85,2.708 -1.85,4.422c-0,1.714 0.617,3.188 1.85,4.422c1.234,1.233 2.712,1.85 4.435,1.85c1.724,0 3.202,-0.617 4.436,-1.85l6.503,-6.531c0.218,-0.217 0.476,-0.326 0.776,-0.326c0.299,-0 0.558,0.109 0.775,0.326c0.218,0.218 0.327,0.476 0.327,0.776c-0,0.299 -0.109,0.558 -0.327,0.775l-6.53,6.504c-1.651,1.651 -3.638,2.476 -5.96,2.476c-2.322,-0 -4.308,-0.825 -5.959,-2.476Z"/>
</svg>
